<svg xmlns="http://www.w3.org/2000/svg" width="266" height="100" viewBox="0 0 266 100">
  <title>Tanglewood Estate</title>
  <g>
    <path d="M265.93,17.75c.39-2.43-.89-3.76-3.18-4.2A29.24,29.24,0,0,0,258,13c-1.8,0-2.41.66-3.41,2.12a122,122,0,0,0-9.53,16.61c-1.29,2.72-2.39,5.56-3.82,8.21-.55,1-1.27,2.73-2.67,2.13-1-.44-1.37-1.67-2.58-2-2.38-.73-6,1-8.2,1.88-2.58,1.05-5.22,3.49-7.91,3.78-.09-1.87.32-4.75-1.12-6.25s-3.41-.58-4.84.48c-.66.48-1,1.18-1.67,1.69a7.56,7.56,0,0,1-2.73.84,52.1,52.1,0,0,0-5.33,2.15c-1.1.46-2.48,1.54-3.44,1.12s-1-2.29-1-3.32c-1.34-1.25-3.49.46-3.64,2-.1,1,.8,2,1.06,2.89a7.85,7.85,0,0,1,.07,3.51,40.48,40.48,0,0,1-2.22,6.87c-.66,1.75-1.33,4.46-2.72,5.72-2.82-1-1.24-9-.76-11,.88-3.67,2.15-8.13,4.86-10.89-1.15-3.35-8.05,2-9.43,2.82-.76.47-1.57,1.18-2.38.55s.07-2.84-.82-3.63c-2.66-2.37-6.11,6.72-6.9,8.35-1,2-1.92,4.1-2.7,6.22-.46,1.24-1.25,4.59-2.23,5.3s-1.49-3.95-1.24-6.84,1.92-6-.08-6.61-5,3.09-6.89,6.08a35.55,35.55,0,0,0-2.52,5c-.68,1.58-1.86,4.47-1.75,1.15A51.82,51.82,0,0,1,160,54a50.87,50.87,0,0,0,.37-6c-.1-5.36-5.24,2.49-6.14,3.76-2.36,3.38-4.82,6.71-7.07,10.17-.69,1.06-1.6,3.54-3.19,3.38-1.94-.2-2.6-3.17-2.65-4.69-.22-5.8,11.23-12.71,7-18.44-1.92-2.59-5.87-1.07-7.81.71-2.51,2.3-3.65,6.73-4.18,9.95-.63,3.84.54,7.65-2,10.84-1.21,1.54-2.39,3.63-3.85,4.93s-2.33.48-2.71-1.47a59.27,59.27,0,0,1-.6-12.7c.1-3.93.71-6.59,3.5-9.42,2.47-2.49,5-4.5,6.85-7.54,2.07-3.38,4-6.8,5.71-10.37a71.43,71.43,0,0,0,5-12.79c.81-3,3.36-9.79.91-12.56A6.41,6.41,0,0,0,144.3,0c-2.23,0-3.27.75-4.88,2.06s-5.29,6-7.69,10a86.46,86.46,0,0,0-7.57,18.53,110.34,110.34,0,0,0-3.74,20.45c-1.72,1.49-2.91,2.73-4.67,4-1.53.87-.49-5-.36-6.41.18-2.21,1.12-4.74-.56-6.26s-5.07,3.56-6.52,5.63Q107,50,105.79,52c-.8,1.35-1.44,3.36-2.65,4.39-1.15-1.16.14-5.76.7-7.12.85-2.08,2.32-1.36,3.85-2.47-.24-3-3.51-2.78-5.68-1.87-2.91,1.23-3.23,4.25-5.21,6.34a35.12,35.12,0,0,0-5.92,8.11c-.72,1.36-4,9.6-5.64,9.08a73.68,73.68,0,0,1-1.65-7.78c-.27-1.89.08-5.8-1.19-7.37-1.07-1.32-3.33-.82-4.67-.23-2,.87-3.26,3.27-5.28,3.76a30.78,30.78,0,0,1,.19-6.07c.22-1.76,1.27-3.37,1.27-5.16-2-1-6-.57-7.12,1.58-.6,1.16-.69,2.64-1.25,3.86-.68,1.49-1.66,2.81-2.46,4.24a56.06,56.06,0,0,0-3.6,8.57c-.52,1.45-2.32,8.53-4,8.11-2-.5-2-5.44-2.11-6.93a49.72,49.72,0,0,1,.77-10.47c.26-1.71,2.19-8,.67-9.2-2.42-2-4.4,3.55-5.56,4.42-2.24-2.77-6.32-1-8.61.84-2.77,2.17-2.71,5.64-4.23,8.58-1.64,3.2-4.36,5.56-5.95,8.77a71.31,71.31,0,0,0-4.84,11.35c-2.21,1.13-1.54-3-1.67-4.39-.28-3-.55-5.88-.59-8.87-.07-6-.08-11.94-.12-17.92a139.9,139.9,0,0,1,.65-17.85c.23-1.9,1.47-5.13,1-7-.64-2.4-3.13-.76-4.49.15-2,1.32-2.32,3.26-2.78,5.44-.62,3-1.19,6-1.58,9-.74,5.74-1,11.61-1.3,17.38a104.51,104.51,0,0,0,.25,17c.4,3.79.85,9.48,3.77,12.35a8.92,8.92,0,0,0,5.29,2.07c2.9.21,4.25-2.57,5.2-4.85C30.47,78.86,31.73,76,32.92,73c.94-2.32,1.57-6.34,3.58-8,1.07.51,1.36,2.89,2.3,3.78a5.57,5.57,0,0,0,4.42,1.48c2.3-.5,3.34-6.39,4.8-6.14,1.31,3.14-.51,7.25,1,10.42C50.23,77,54.18,78,56.61,77.16c2.93-1,3.65-4.63,4.61-7.24C62.48,66.53,63,63,64.71,59.76c1.05,1.19.27,4.3.28,5.77,0,2.06-.24,4.62.28,6.61.58,2.17,4,3.93,5.89,2.11,1-1,.77-3.23.81-4.49.07-2.11-.24-4.15.27-6.23.83-3.36,2.86-7.64,6.54-8.5,2.94,4.76-1.56,18.28,7.18,18.58,3.34.12,3.7-4.9,5-7.37,1.83-3.5,3.82-6.92,5.69-10.41.2,2.4,3.7,8.91,6.64,5.71,1.52-1.65,2.25-4.66,3.36-6.63.84-1.49,2.27-5.23,4.13-5.78v7c0,1.93.42,4.39-.34,6.21s-2.25,3.64-3.12,5.56-1.72,4.11-2.53,6.19a38.73,38.73,0,0,0-3,13.23c0,2.69.09,9.51,2.9,11,3.77,2,6-.84,7.23-4,1.6-4.13,2-8.88,2.31-13.27.42-4.94.88-9.93,1-14.89.06-2.1-.1-4.24.72-6.22s2.38-3.28,3.66-4.79c1.47-1.32,1.28,6.39,1.44,7.76.34,2.81.57,6.21,2.86,8.19,1.77,1.52,4.91,2.09,6.9.63,2.27-1.67,3.4-4.81,5.53-6.7,1.83-1.84.55,2.07,4.37,2.82a6.61,6.61,0,0,0,5.72-1.47c1.93-1.63,3.25-4.18,4.64-6.26,1.67-2.49,3.79-6.11,5-7.49s.44,2.63.32,3.75c-.18,1.74-.25,3.51-.28,5.26,0,1.95-.63,4.8,1.44,5.82,2.85,1.39,3.86-1,4.8-3.16.6-1.35,2.68-6.4,3.74-7.22s.73,4.5,1.08,6.08a3.89,3.89,0,0,0,2.17,3.08c1.08.47,3.77.81,4.72.11,1.18-.88,1-3.17,1.37-4.5a51.34,51.34,0,0,1,4-11.88c.61-1.2,1.63-4.21,3.25-4,.69.08,1.23.9,1.94,1.06a4.79,4.79,0,0,0,3-.62c0,1.86-1.22,3.72-1.62,5.53a24.79,24.79,0,0,0-.48,6.71c.15,2.73.57,6,3.57,6.89a9,9,0,0,0,4.39.22c1.51-.51,1.93-2.37,2.5-3.72a67.92,67.92,0,0,0,4.38-13.82c2.47-.19,4.39-2.12,7.06-2.52a31,31,0,0,1-1.79,5.84c-1.95,3.68-2.55,8.89.33,11.92a5,5,0,0,0,8.12-.69c2.38-3.92,3.15-8.23,4.86-12.4.71-1.72,1.68-2.14,3.35-2.92,1.26-.59,3.06-2.32,4.53-2a8.11,8.11,0,0,1-.71,2.74,16.51,16.51,0,0,0-.8,3.94c-.12,2-.15,5.36,2,6.17,2.48.92,3.66-.75,4.77-2.66.88-1.49,2.86-5.3,4.23-6.12s-1.61,5.31-2.19,7.71a53,53,0,0,0-1.2,8.78c-.2,2.86-.62,14.44.75,16.84a.47.47,0,0,1,.2.1l-.2-.1a3.07,3.07,0,0,0,2.88,2.4c1.8-.21,1.25-2.31,1.25-3.59a74.26,74.26,0,0,1,1.28-12A115.26,115.26,0,0,1,245,48.07a32.26,32.26,0,0,1,2-4.65c.91-1.64,1.94-2,3.52-2.87a42.19,42.19,0,0,0,8.43-5.91,21.3,21.3,0,0,0,5-7.16,33.12,33.12,0,0,0,1.43-4.67C265.84,21,265.65,19.51,265.93,17.75ZM145.61,44.31c1.27,1.21-.21,5.18-3.21,7.86C142.48,48.49,144.34,43.09,145.61,44.31ZM142.42,6.73S144,3.83,145.16,4c1.84.28.93,4.09.78,5a50.51,50.51,0,0,1-3.38,12.25c-1.81,4.19-4,8.31-6.25,12.3-1.17,2.09-3.67,5.87-3.67,5.87s-4,5.67-4,4.2C131.17,30.4,142.42,6.73,142.42,6.73ZM48.36,53.09c-1.54,4.23-2.92,8.61-4.7,12.75-2.14,5-3.41-2.38-3.44-4.49-.06-3.35.17-7.81,3.07-10.09C45.11,49.83,49.62,49.6,48.36,53.09Zm59,42c-3.7-2.73-3.16-9.65-2.35-13.54a57.9,57.9,0,0,1,5.54-14.9C112.12,72.58,110.09,90.16,107.36,95.09Zm106.8-43.3c-.68,2.1-1.36,4.2-2.15,6.26-.5,1.29-1.47,4.26-2.39,4.08-3.42-1.07-1.45-10.09,0-13.56.64-1.56,1.54-5.14,3.6-3.53S214.83,49.74,214.16,51.79Zm20.53-6.08a63.34,63.34,0,0,0-3.31,5.78c-.63,1.21-1.72,5.16-2.93,3.87s1.85-14.31,6.75-12C236.06,43.82,235.5,44.59,234.69,45.71ZM261.82,20.9a31.64,31.64,0,0,1-4.08,10c-1.63,2.39-5.13,5.85-8.07,6.45,1.59-3.35,3.2-6.69,4.76-10.06.69-1.49.66-3,1.44-4.35a60.41,60.41,0,0,1,3.77-5C261.58,18,262.32,18.86,261.82,20.9Z"/>
    <path d="M38,16.84c1.84-.19,3.64-.75,5.46-1.11,1.55-.3,1.71-1.58.7-2.74a4,4,0,0,0-3.25-1.31A33.33,33.33,0,0,0,32.49,13L15.31,17.21C11.08,18.26,6.93,19.65,2.78,21-.13,22-.76,24,.91,26.74a15.87,15.87,0,0,0,6.56-1.26c1-.45,2.05-.93,3.12-1.32,7.15-2.62,14.62-4.08,21.9-6.23A29.34,29.34,0,0,1,38,16.84Z"/>
    <g>
      <path d="M132.54,90.84c0-2.94,0-3.48,0-4.08s-.2-1-.85-1.08a4.15,4.15,0,0,0-.54-.05c-.15,0-.29-.06-.29-.13s.11-.18.34-.18c.44,0,1.05,0,2.3.07.11,0,4.1,0,4.54,0a3,3,0,0,0,.88-.11.69.69,0,0,1,.24-.06s.09,0,.09.15-.13.45-.18,1c0,.38,0,.74-.07,1.17,0,.2,0,.34-.15.34s-.16-.09-.16-.25a2.32,2.32,0,0,0-.15-.72c-.14-.45-.34-.6-1.46-.67-.29,0-2.51,0-2.55,0s-.11,0-.11.18v5.1c0,.13,0,.22.13.22.27,0,2.55,0,3-.06s.85-.09,1-.34.16-.18.25-.18.09,0,.09.13-.09.54-.16,1.19-.07,1.08-.09,1.37-.07.25-.15.25-.14-.14-.14-.29a2.22,2.22,0,0,0-.07-.54c-.09-.29-.22-.61-1.07-.67-.51,0-2.33-.09-2.69-.09-.13,0-.15.06-.15.15v1.64c0,.7,0,2.67,0,3,0,.83.15,1.26.62,1.46a4.24,4.24,0,0,0,1.64.2,6.51,6.51,0,0,0,1.7-.13c.67-.2.83-.65,1-1.48,0-.23.11-.32.2-.32s.13.21.13.34-.18,1.57-.25,2-.24.5-1,.5c-1.48,0-2.1,0-2.89,0s-1.81-.06-2.64-.06c-.51,0-.94.06-1.47.06-.2,0-.32,0-.32-.15s.09-.16.21-.16a1.44,1.44,0,0,0,.44-.07c.41-.09.67-.38.72-1.77,0-.77,0-1.69,0-3.39Z"/>
      <path d="M147.13,99.51c-.29-.14-.29-.23-.29-.77,0-1,.07-1.79.09-2.11s.07-.31.18-.31.15.07.15.22a2.65,2.65,0,0,0,3,2.7A2.51,2.51,0,0,0,153,96.83c0-1.27-.58-2.06-2.21-3.38l-.9-.7c-2.15-1.73-2.59-2.92-2.59-4.24,0-2.07,1.63-3.46,4.13-3.46a7.94,7.94,0,0,1,1.82.18,3.54,3.54,0,0,0,.76.11c.15,0,.2,0,.2.14s-.09.87-.09,2.17c0,.34,0,.48-.16.48s-.13-.09-.15-.25a3.33,3.33,0,0,0-.27-1.06c-.11-.2-.63-1-2.51-1a2.14,2.14,0,0,0-2.35,2.15c0,1.06.54,1.71,2.4,3.12l.51.41c2.33,1.79,2.93,3,2.93,4.58a3.92,3.92,0,0,1-1.7,3.18,5.48,5.48,0,0,1-3,.79A6.33,6.33,0,0,1,147.13,99.51Z"/>
      <path d="M167.49,94.21c0,1.73,0,3.32.11,4.15.07.54.11.85.67,1a4.21,4.21,0,0,0,.87.09c.18,0,.27.07.27.13s-.07.18-.29.18c-1.14,0-2.46-.06-2.55-.06s-1.41.06-2,.06c-.25,0-.34,0-.34-.15s.07-.16.25-.16a4,4,0,0,0,.49,0c.43-.07.49-.34.58-1.1s.09-2.43.09-4.11v-8c-.74,0-1.92,0-2.82,0-1.43,0-1.74.24-2.05.72a2.9,2.9,0,0,0-.34.69c-.07.16-.11.18-.2.18s-.11-.09-.11-.2.31-1.62.44-2.22c.07-.27.14-.36.21-.36s.58.2,1,.25c.78.08,1.41.11,1.43.11h7.34a10.42,10.42,0,0,0,1.61-.11,2.33,2.33,0,0,1,.43-.09c.09,0,.13.11.13.2,0,.63,0,2.11,0,2.29s-.09.27-.16.27-.16-.09-.16-.27a3,3,0,0,0,0-.32c-.09-.9-.38-1.12-2.64-1.14l-2.19,0Z"/>
      <path d="M180.44,94.28a.22.22,0,0,0-.22.18l-1,2.8a5.85,5.85,0,0,0-.38,1.6c0,.4.25.58.74.58h.16c.2,0,.27.07.27.16s-.18.15-.34.15c-.49,0-1.52-.06-1.77-.06s-1.21.06-2.15.06c-.24,0-.35,0-.35-.15s.09-.16.26-.16a3.46,3.46,0,0,0,.45,0c1-.09,1.34-.83,1.72-1.78l4.48-11.83c.25-.65.31-.76.47-.76s.2.09.45.72,3.35,8.57,4.54,11.38c.74,1.77,1.39,2.06,1.7,2.18a2.15,2.15,0,0,0,.76.11c.16,0,.27,0,.27.16s-.09.15-.34.15-1.9,0-3.4,0c-.42,0-.56,0-.56-.16s.07-.13.16-.16.22-.15.09-.49l-1.77-4.51a.19.19,0,0,0-.18-.11Zm3.8-.79c.09,0,.09-.07.07-.13l-1.77-5c-.11-.32-.13-.32-.24,0l-1.68,5c-.05.09,0,.13,0,.13Z"/>
      <path d="M199.86,94.21c0,1.73,0,3.32.11,4.15.07.54.11.85.67,1a4.27,4.27,0,0,0,.87.09c.18,0,.27.07.27.13s-.06.18-.29.18c-1.14,0-2.46-.06-2.55-.06s-1.41.06-2,.06c-.25,0-.34,0-.34-.15s.07-.16.25-.16a4,4,0,0,0,.49,0c.43-.07.49-.34.58-1.1s.09-2.43.09-4.11v-8c-.73,0-1.92,0-2.81,0-1.44,0-1.75.24-2.06.72a4,4,0,0,0-.34.69c-.07.16-.11.18-.2.18s-.11-.09-.11-.2.31-1.62.45-2.22c.06-.27.13-.36.2-.36s.58.2,1,.25c.78.08,1.41.11,1.43.11h7.34a10.42,10.42,0,0,0,1.61-.11,2.33,2.33,0,0,1,.43-.09c.09,0,.13.11.13.2,0,.63,0,2.11,0,2.29s-.09.27-.16.27-.16-.09-.16-.27a3,3,0,0,0,0-.32c-.09-.9-.38-1.12-2.64-1.14l-2.19,0Z"/>
      <path d="M212.88,90.84c0-2.94,0-3.48,0-4.08s-.2-1-.85-1.08a3.83,3.83,0,0,0-.53-.05c-.16,0-.29-.06-.29-.13s.11-.18.33-.18c.45,0,1,0,2.31.07.11,0,4.09,0,4.54,0a3,3,0,0,0,.87-.11.74.74,0,0,1,.25-.06s.09,0,.09.15a9.27,9.27,0,0,0-.18,1c0,.38-.05.74-.07,1.17,0,.2-.05.34-.16.34s-.15-.09-.15-.25a2.27,2.27,0,0,0-.16-.72c-.13-.45-.34-.6-1.45-.67-.3,0-2.51,0-2.56,0s-.11,0-.11.18v5.1c0,.13,0,.22.14.22.27,0,2.55,0,3-.06s.85-.09,1-.34.15-.18.24-.18.09,0,.09.13-.09.54-.15,1.19-.07,1.08-.09,1.37-.07.25-.16.25-.13-.14-.13-.29a2.86,2.86,0,0,0-.07-.54c-.09-.29-.23-.61-1.08-.67-.51,0-2.32-.09-2.68-.09-.13,0-.16.06-.16.15v1.64c0,.7,0,2.67,0,3,0,.83.16,1.26.63,1.46a4.18,4.18,0,0,0,1.63.2,6.48,6.48,0,0,0,1.7-.13c.67-.2.83-.65,1-1.48,0-.23.11-.32.2-.32s.14.21.14.34-.18,1.57-.25,2-.25.5-1,.5c-1.47,0-2.1,0-2.88,0s-1.81-.06-2.64-.06c-.52,0-.94.06-1.48.06-.2,0-.31,0-.31-.15a.18.18,0,0,1,.2-.16,1.55,1.55,0,0,0,.45-.07c.4-.09.67-.38.71-1.77,0-.77,0-1.69,0-3.39Z"/>
    </g>
  </g>
</svg>
