<svg xmlns="http://www.w3.org/2000/svg" viewBox="0 0 266 100">
	<title>Tanglewood Estate</title>
	<path d="M265.9,17.8c0.4-2.4-0.9-3.8-3.2-4.2c-1.6-0.3-3.2-0.5-4.8-0.6c-1.8,0-2.4,0.7-3.4,2.1c-3.6,5.3-6.8,10.8-9.5,16.6c-1.3,2.7-2.4,5.6-3.8,8.2c-0.6,1-1.3,2.7-2.7,2.1c-1-0.4-1.4-1.7-2.6-2c-2.4-0.7-6,1-8.2,1.9c-2.6,1-5.2,3.5-7.9,3.8c-0.1-1.9,0.3-4.8-1.1-6.2s-3.4-0.6-4.8,0.5c-0.7,0.5-1,1.2-1.7,1.7c-0.8,0.5-1.8,0.7-2.7,0.8c-1.8,0.6-3.6,1.3-5.3,2.2c-1.1,0.5-2.5,1.5-3.4,1.1s-1-2.3-1-3.3c-1.3-1.2-3.5,0.5-3.6,2c-0.1,1,0.8,2,1.1,2.9c0.3,1.1,0.3,2.3,0.1,3.5c-0.5,2.4-1.3,4.7-2.2,6.9c-0.7,1.8-1.3,4.5-2.7,5.7c-2.8-1-1.2-9-0.8-11c0.9-3.7,2.1-8.1,4.9-10.9c-1.1-3.3-8.1,2-9.4,2.8c-0.8,0.5-1.6,1.2-2.4,0.5s0.1-2.8-0.8-3.6c-2.7-2.4-6.1,6.7-6.9,8.4c-1,2-1.9,4.1-2.7,6.2c-0.5,1.2-1.2,4.6-2.2,5.3s-1.5-4-1.2-6.8s1.9-6-0.1-6.6s-5,3.1-6.9,6.1c-1,1.6-1.8,3.3-2.5,5c-0.7,1.6-1.9,4.5-1.8,1.2c0.1-2,0.2-4,0.5-5.9c0.2-2,0.4-4,0.4-6c-0.1-5.4-5.2,2.5-6.1,3.8c-2.4,3.4-4.8,6.7-7.1,10.2c-0.7,1.1-1.6,3.5-3.2,3.4c-1.9-0.2-2.6-3.2-2.6-4.7c-0.2-5.8,11.2-12.7,7-18.4c-1.9-2.6-5.9-1.1-7.8,0.7c-2.5,2.3-3.6,6.7-4.2,10c-0.6,3.8,0.5,7.7-2,10.8c-1.2,1.5-2.4,3.6-3.9,4.9s-2.3,0.5-2.7-1.5c-0.7-4.2-0.9-8.5-0.6-12.7c0.1-3.9,0.7-6.6,3.5-9.4c2.5-2.5,5-4.5,6.9-7.5c2.1-3.4,4-6.8,5.7-10.4c2.1-4.1,3.7-8.4,5-12.8c0.8-3,3.4-9.8,0.9-12.6c-1.3-1.2-3.1-1.9-4.8-1.8c-2.2,0-3.3,0.8-4.9,2.1s-5.3,6-7.7,10c-3.2,5.9-5.8,12.1-7.6,18.5c-1.9,6.7-3.1,13.5-3.7,20.5c-1.7,1.5-2.9,2.7-4.7,4c-1.5,0.9-0.5-5-0.4-6.4c0.2-2.2,1.1-4.7-0.6-6.3s-5.1,3.6-6.5,5.6c-0.9,1.3-1.7,2.7-2.5,4c-0.8,1.3-1.4,3.4-2.7,4.4c-1.2-1.2,0.1-5.8,0.7-7.1c0.8-2.1,2.3-1.4,3.8-2.5c-0.2-3-3.5-2.8-5.7-1.9c-2.9,1.2-3.2,4.2-5.2,6.3c-2.4,2.4-4.3,5.1-5.9,8.1c-0.7,1.4-4,9.6-5.6,9.1c-0.7-2.6-1.2-5.2-1.7-7.8c-0.3-1.9,0.1-5.8-1.2-7.4c-1.1-1.3-3.3-0.8-4.7-0.2c-2,0.9-3.3,3.3-5.3,3.8c-0.1-2-0.1-4.1,0.2-6.1c0.2-1.8,1.3-3.4,1.3-5.2c-2-1-6-0.6-7.1,1.6c-0.6,1.2-0.7,2.6-1.2,3.9c-0.7,1.5-1.7,2.8-2.5,4.2c-1.4,2.8-2.6,5.6-3.6,8.6c-0.5,1.4-2.3,8.5-4,8.1c-2-0.5-2-5.4-2.1-6.9c-0.1-3.5,0.1-7,0.8-10.5c0.3-1.7,2.2-8,0.7-9.2c-2.4-2-4.4,3.5-5.6,4.4c-2.2-2.8-6.3-1-8.6,0.8c-2.8,2.2-2.7,5.6-4.2,8.6c-1.6,3.2-4.4,5.6-6,8.8c-1.9,3.6-3.6,7.4-4.8,11.3c-2.2,1.1-1.5-3-1.7-4.4c-0.3-3-0.5-5.9-0.6-8.9c-0.1-6-0.1-11.9-0.1-17.9c-0.2-6,0.1-11.9,0.6-17.9c0.2-1.9,1.5-5.1,1-7c-0.6-2.4-3.1-0.8-4.5,0.1c-2,1.3-2.3,3.3-2.8,5.4c-0.6,3-1.2,6-1.6,9c-0.7,5.7-1,11.6-1.3,17.4c-0.4,5.7-0.3,11.3,0.2,17c0.4,3.8,0.9,9.5,3.8,12.3c1.5,1.2,3.3,2,5.3,2.1c2.9,0.2,4.2-2.6,5.2-4.8c1.2-3,2.5-5.8,3.7-8.8c0.9-2.3,1.6-6.3,3.6-8c1.1,0.5,1.4,2.9,2.3,3.8c1.2,1.1,2.8,1.7,4.4,1.5c2.3-0.5,3.3-6.4,4.8-6.1c1.3,3.1-0.5,7.2,1,10.4c1.2,2.5,5.2,3.5,7.6,2.6c2.9-1,3.7-4.6,4.6-7.2c1.3-3.4,1.8-6.9,3.5-10.2c1.1,1.2,0.3,4.3,0.3,5.8c0,2.1-0.2,4.6,0.3,6.6c0.6,2.2,4,3.9,5.9,2.1c1-1,0.8-3.2,0.8-4.5c0.1-2.1-0.2-4.2,0.3-6.2c0.8-3.4,2.9-7.6,6.5-8.5c2.9,4.8-1.6,18.3,7.2,18.6c3.3,0.1,3.7-4.9,5-7.4c1.8-3.5,3.8-6.9,5.7-10.4c0.2,2.4,3.7,8.9,6.6,5.7c1.5-1.7,2.2-4.7,3.4-6.6c0.8-1.5,2.3-5.2,4.1-5.8v7c0,1.9,0.4,4.4-0.3,6.2s-2.2,3.6-3.1,5.6s-1.7,4.1-2.5,6.2c-1.8,4.2-2.8,8.7-3,13.2c0,2.7,0.1,9.5,2.9,11c3.8,2,6-0.8,7.2-4c1.6-4.1,2-8.9,2.3-13.3c0.4-4.9,0.9-9.9,1-14.9c0.1-2.1-0.1-4.2,0.7-6.2s2.4-3.3,3.7-4.8c1.5-1.3,1.3,6.4,1.4,7.8c0.3,2.8,0.6,6.2,2.9,8.2c1.8,1.5,4.9,2.1,6.9,0.6c2.3-1.7,3.4-4.8,5.5-6.7c1.8-1.8,0.6,2.1,4.4,2.8c2,0.4,4.2-0.1,5.7-1.5c1.9-1.6,3.2-4.2,4.6-6.3c1.7-2.5,3.8-6.1,5-7.5s0.4,2.6,0.3,3.8c-0.2,1.7-0.2,3.5-0.3,5.3c0,2-0.6,4.8,1.4,5.8c2.9,1.4,3.9-1,4.8-3.2c0.6-1.3,2.7-6.4,3.7-7.2s0.7,4.5,1.1,6.1c0.1,1.3,1,2.5,2.2,3.1c1.1,0.5,3.8,0.8,4.7,0.1c1.2-0.9,1-3.2,1.4-4.5c0.8-4.1,2.2-8.1,4-11.9c0.6-1.2,1.6-4.2,3.2-4c0.7,0.1,1.2,0.9,1.9,1.1c1,0.1,2.1-0.1,3-0.6c0,1.9-1.2,3.7-1.6,5.5c-0.5,2.2-0.6,4.5-0.5,6.7c0.1,2.7,0.6,6,3.6,6.9c1.4,0.4,2.9,0.5,4.4,0.2c1.5-0.5,1.9-2.4,2.5-3.7c1.9-4.4,3.4-9.1,4.4-13.8c2.5-0.2,4.4-2.1,7.1-2.5c-0.4,2-1,4-1.8,5.8c-1.9,3.7-2.6,8.9,0.3,11.9c1.8,2.1,4.9,2.4,7,0.6c0.4-0.4,0.8-0.8,1.1-1.3c2.4-3.9,3.1-8.2,4.9-12.4c0.7-1.7,1.7-2.1,3.4-2.9c1.3-0.6,3.1-2.3,4.5-2c-0.1,0.9-0.3,1.9-0.7,2.7c-0.4,1.3-0.7,2.6-0.8,3.9c-0.1,2-0.1,5.4,2,6.2c2.5,0.9,3.7-0.8,4.8-2.7c0.9-1.5,2.9-5.3,4.2-6.1s-1.6,5.3-2.2,7.7c-0.6,2.9-1,5.8-1.2,8.8c-0.2,2.9-0.6,14.4,0.8,16.8c0.1,0,0.1,0.1,0.2,0.1l-0.2-0.1c0.3,1.4,1.5,2.3,2.9,2.4c1.8-0.2,1.2-2.3,1.2-3.6c0.1-4,0.5-8,1.3-12c1.3-7.4,3.3-14.6,5.9-21.6c0.5-1.6,1.2-3.2,2-4.7c0.9-1.6,1.9-2,3.5-2.9c3-1.6,5.9-3.6,8.4-5.9c2.1-2,3.8-4.5,5-7.2c0.6-1.5,1.1-3.1,1.4-4.7C265.8,21,265.6,19.5,265.9,17.8z M145.6,44.3c1.3,1.2-0.2,5.2-3.2,7.9C142.5,48.5,144.3,43.1,145.6,44.3z M142.4,6.7c0,0,1.6-2.9,2.7-2.7c1.8,0.3,0.9,4.1,0.8,5c-0.6,4.2-1.7,8.3-3.4,12.2c-1.8,4.2-4,8.3-6.2,12.3c-1.2,2.1-3.7,5.9-3.7,5.9s-4,5.7-4,4.2C131.2,30.4,142.4,6.7,142.4,6.7z M48.4,53.1c-1.5,4.2-2.9,8.6-4.7,12.7c-2.1,5-3.4-2.4-3.4-4.5c-0.1-3.3,0.2-7.8,3.1-10.1C45.1,49.8,49.6,49.6,48.4,53.1z M107.4,95.1c-3.7-2.7-3.2-9.7-2.3-13.5c1.2-5.2,3-10.2,5.5-14.9C112.1,72.6,110.1,90.2,107.4,95.1z M214.2,51.8c-0.7,2.1-1.4,4.2-2.1,6.3c-0.5,1.3-1.5,4.3-2.4,4.1c-3.4-1.1-1.4-10.1,0-13.6c0.6-1.6,1.5-5.1,3.6-3.5S214.8,49.7,214.2,51.8z M234.7,45.7c-1.2,1.9-2.3,3.8-3.3,5.8c-0.6,1.2-1.7,5.2-2.9,3.9s1.9-14.3,6.8-12C236.1,43.8,235.5,44.6,234.7,45.7z M261.8,20.9c-0.8,3.5-2.2,6.9-4.1,10c-1.6,2.4-5.1,5.9-8.1,6.4c1.6-3.3,3.2-6.7,4.8-10.1c0.7-1.5,0.7-3,1.4-4.4c1.2-1.7,2.4-3.4,3.8-5C261.6,18,262.3,18.9,261.8,20.9z M38,16.8c1.8-0.2,3.6-0.8,5.5-1.1c1.5-0.3,1.7-1.6,0.7-2.7c-0.8-0.9-2-1.4-3.2-1.3c-2.9,0.1-5.7,0.5-8.4,1.3l-17.2,4.2c-4.2,1.1-8.4,2.4-12.5,3.8c-2.9,1-3.5,3-1.9,5.7c2.3,0.1,4.5-0.4,6.6-1.3c1-0.5,2-0.9,3.1-1.3c7.1-2.6,14.6-4.1,21.9-6.2C34.3,17.4,36.1,17,38,16.8z M132.5,90.8c0-2.9,0-3.5,0-4.1s-0.2-1-0.9-1.1c-0.2,0-0.4,0-0.5-0.1c-0.1,0-0.3-0.1-0.3-0.1s0.1-0.2,0.3-0.2c0.4,0,1.1,0,2.3,0.1c0.1,0,4.1,0,4.5,0c0.3,0,0.6,0,0.9-0.1c0.1,0,0.2-0.1,0.2-0.1c0,0,0.1,0,0.1,0.2s-0.1,0.4-0.2,1c0,0.4,0,0.7-0.1,1.2c0,0.2,0,0.3-0.1,0.3s-0.2-0.1-0.2-0.2c0-0.2-0.1-0.5-0.1-0.7c-0.1-0.4-0.3-0.6-1.5-0.7c-0.3,0-2.5,0-2.6,0s-0.1,0-0.1,0.2v5.1c0,0.1,0,0.2,0.1,0.2c0.3,0,2.6,0,3-0.1s0.9-0.1,1-0.3s0.2-0.2,0.2-0.2s0.1,0,0.1,0.1s-0.1,0.5-0.2,1.2s-0.1,1.1-0.1,1.4s-0.1,0.2-0.1,0.2s-0.1-0.1-0.1-0.3c0-0.2,0-0.4-0.1-0.5c-0.1-0.3-0.2-0.6-1.1-0.7c-0.5,0-2.3-0.1-2.7-0.1c-0.1,0-0.1,0.1-0.1,0.2v1.6c0,0.7,0,2.7,0,3c0,0.8,0.1,1.3,0.6,1.5c0.5,0.2,1.1,0.2,1.6,0.2c0.6,0,1.1,0,1.7-0.1c0.7-0.2,0.8-0.7,1-1.5c0-0.2,0.1-0.3,0.2-0.3s0.1,0.2,0.1,0.3s-0.2,1.6-0.2,2s-0.2,0.5-1,0.5c-1.5,0-2.1,0-2.9,0s-1.8-0.1-2.6-0.1c-0.5,0-0.9,0.1-1.5,0.1c-0.2,0-0.3,0-0.3-0.2s0.1-0.2,0.2-0.2c0.1,0,0.3,0,0.4-0.1c0.4-0.1,0.7-0.4,0.7-1.8c0-0.8,0-1.7,0-3.4L132.5,90.8z M147.1,99.5c-0.3-0.1-0.3-0.2-0.3-0.8c0-1,0.1-1.8,0.1-2.1s0.1-0.3,0.2-0.3s0.1,0.1,0.1,0.2c0,1.5,1.1,2.7,2.6,2.7c0.1,0,0.3,0,0.4,0c1.4,0.1,2.6-0.9,2.7-2.3c0,0,0-0.1,0-0.1c0-1.3-0.6-2.1-2.2-3.4l-0.9-0.7c-2.1-1.7-2.6-2.9-2.6-4.2c0-2.1,1.6-3.5,4.1-3.5c0.6,0,1.2,0.1,1.8,0.2c0.2,0.1,0.5,0.1,0.8,0.1c0.1,0,0.2,0,0.2,0.1s-0.1,0.9-0.1,2.2c0,0.3,0,0.5-0.2,0.5s-0.1-0.1-0.1-0.2c0-0.4-0.1-0.7-0.3-1.1c-0.1-0.2-0.6-1-2.5-1c-1.2-0.1-2.2,0.7-2.3,1.9c0,0.1,0,0.2,0,0.2c0,1.1,0.5,1.7,2.4,3.1l0.5,0.4c2.3,1.8,2.9,3,2.9,4.6c0,1.3-0.7,2.5-1.7,3.2c-0.9,0.5-1.9,0.8-3,0.8C148.9,100.1,148,99.9,147.1,99.5z M167.5,94.2c0,1.7,0,3.3,0.1,4.2c0.1,0.5,0.1,0.8,0.7,1c0.3,0.1,0.6,0.1,0.9,0.1c0.2,0,0.3,0.1,0.3,0.1s-0.1,0.2-0.3,0.2c-1.1,0-2.5-0.1-2.6-0.1s-1.4,0.1-2,0.1c-0.2,0-0.3,0-0.3-0.2s0.1-0.2,0.2-0.2c0.2,0,0.3,0,0.5,0c0.4-0.1,0.5-0.3,0.6-1.1s0.1-2.4,0.1-4.1v-8c-0.7,0-1.9,0-2.8,0c-1.4,0-1.7,0.2-2.1,0.7c-0.1,0.2-0.3,0.4-0.3,0.7c-0.1,0.2-0.1,0.2-0.2,0.2s-0.1-0.1-0.1-0.2s0.3-1.6,0.4-2.2c0.1-0.3,0.1-0.4,0.2-0.4s0.6,0.2,1,0.2c0.8,0.1,1.4,0.1,1.4,0.1h7.3c0.5,0,1.1,0,1.6-0.1c0.1,0,0.3-0.1,0.4-0.1c0.1,0,0.1,0.1,0.1,0.2c0,0.6,0,2.1,0,2.3s-0.1,0.3-0.2,0.3s-0.2-0.1-0.2-0.3c0-0.1,0-0.2,0-0.3c-0.1-0.9-0.4-1.1-2.6-1.1h-2.2L167.5,94.2z M180.4,94.3c-0.1,0-0.2,0.1-0.2,0.2l-1,2.8c-0.2,0.5-0.3,1.1-0.4,1.6c0,0.4,0.2,0.6,0.7,0.6h0.2c0.2,0,0.3,0.1,0.3,0.2s-0.2,0.2-0.3,0.2c-0.5,0-1.5-0.1-1.8-0.1s-1.2,0.1-2.1,0.1c-0.2,0-0.4,0-0.4-0.2s0.1-0.2,0.3-0.2c0.1,0,0.3,0,0.4,0c1-0.1,1.3-0.8,1.7-1.8l4.5-11.8c0.2-0.7,0.3-0.8,0.5-0.8s0.2,0.1,0.4,0.7s3.4,8.6,4.5,11.4c0.7,1.8,1.4,2.1,1.7,2.2c0.2,0.1,0.5,0.1,0.8,0.1c0.2,0,0.3,0,0.3,0.2s-0.1,0.2-0.3,0.2s-1.9,0-3.4,0c-0.4,0-0.6,0-0.6-0.2s0.1-0.1,0.2-0.2s0.2-0.2,0.1-0.5l-1.8-4.5c0-0.1-0.1-0.1-0.2-0.1L180.4,94.3z M184.2,93.5c0.1,0,0.1-0.1,0.1-0.1l-1.8-5c-0.1-0.3-0.1-0.3-0.2,0l-1.7,5c-0.1,0.1,0,0.1,0,0.1H184.2z M199.9,94.2c0,1.7,0,3.3,0.1,4.2c0.1,0.5,0.1,0.8,0.7,1c0.3,0.1,0.6,0.1,0.9,0.1c0.2,0,0.3,0.1,0.3,0.1s-0.1,0.2-0.3,0.2c-1.1,0-2.5-0.1-2.6-0.1s-1.4,0.1-2,0.1c-0.2,0-0.3,0-0.3-0.2s0.1-0.2,0.2-0.2c0.2,0,0.3,0,0.5,0c0.4-0.1,0.5-0.3,0.6-1.1s0.1-2.4,0.1-4.1v-8c-0.7,0-1.9,0-2.8,0c-1.4,0-1.8,0.2-2.1,0.7c-0.1,0.2-0.2,0.4-0.3,0.7c-0.1,0.2-0.1,0.2-0.2,0.2s-0.1-0.1-0.1-0.2s0.3-1.6,0.4-2.2c0.1-0.3,0.1-0.4,0.2-0.4s0.6,0.2,1,0.2c0.8,0.1,1.4,0.1,1.4,0.1h7.3c0.5,0,1.1,0,1.6-0.1c0.1,0,0.3-0.1,0.4-0.1c0.1,0,0.1,0.1,0.1,0.2c0,0.6,0,2.1,0,2.3S205,88,204.9,88s-0.2-0.1-0.2-0.3c0-0.1,0-0.2,0-0.3c-0.1-0.9-0.4-1.1-2.6-1.1h-2.2L199.9,94.2z M212.9,90.8c0-2.9,0-3.5,0-4.1s-0.2-1-0.9-1.1c-0.2,0-0.4,0-0.5-0.1c-0.2,0-0.3-0.1-0.3-0.1s0.1-0.2,0.3-0.2c0.4,0,1,0,2.3,0.1c0.1,0,4.1,0,4.5,0c0.3,0,0.6,0,0.9-0.1c0.1,0,0.2-0.1,0.2-0.1c0,0,0.1,0,0.1,0.2c-0.1,0.3-0.1,0.7-0.2,1c0,0.4-0.1,0.7-0.1,1.2c0,0.2-0.1,0.3-0.2,0.3s-0.1-0.1-0.1-0.2c0-0.2-0.1-0.5-0.2-0.7c-0.1-0.4-0.3-0.6-1.4-0.7c-0.3,0-2.5,0-2.6,0s-0.1,0-0.1,0.2v5.1c0,0.1,0,0.2,0.1,0.2c0.3,0,2.6,0,3-0.1s0.9-0.1,1-0.3s0.1-0.2,0.2-0.2s0.1,0,0.1,0.1s-0.1,0.5-0.1,1.2s-0.1,1.1-0.1,1.4s-0.1,0.2-0.2,0.2s-0.1-0.1-0.1-0.3c0-0.2,0-0.4-0.1-0.5c-0.1-0.3-0.2-0.6-1.1-0.7c-0.5,0-2.3-0.1-2.7-0.1c-0.1,0-0.2,0.1-0.2,0.2v1.6c0,0.7,0,2.7,0,3c0,0.8,0.2,1.3,0.6,1.5c0.5,0.2,1.1,0.2,1.6,0.2c0.6,0,1.1,0,1.7-0.1c0.7-0.2,0.8-0.7,1-1.5c0-0.2,0.1-0.3,0.2-0.3s0.1,0.2,0.1,0.3s-0.2,1.6-0.2,2s-0.2,0.5-1,0.5c-1.5,0-2.1,0-2.9,0s-1.8-0.1-2.6-0.1c-0.5,0-0.9,0.1-1.5,0.1c-0.2,0-0.3,0-0.3-0.2c0-0.1,0.1-0.2,0.2-0.2c0,0,0,0,0,0c0.2,0,0.3,0,0.4-0.1c0.4-0.1,0.7-0.4,0.7-1.8c0-0.8,0-1.7,0-3.4L212.9,90.8z"/>
</svg>
