<?xml version="1.0" standalone="no"?>
<!DOCTYPE svg PUBLIC "-//W3C//DTD SVG 20010904//EN"
 "http://www.w3.org/TR/2001/REC-SVG-20010904/DTD/svg10.dtd">
<svg version="1.0" xmlns="http://www.w3.org/2000/svg"
 width="700.000000pt" height="700.000000pt" viewBox="0 0 700.000000 700.000000"
 preserveAspectRatio="xMidYMid meet">
<metadata>
Created by potrace 1.11, written by Peter Selinger 2001-2013
</metadata>
<g transform="translate(0.000000,700.000000) scale(0.100000,-0.100000)"
fill="#000000" stroke="none">
<path d="M3257 6290 c-480 -46 -920 -200 -1302 -453 -673 -447 -1102 -1124
-1226 -1937 -19 -121 -23 -187 -23 -400 0 -283 17 -430 75 -667 249 -1018
1034 -1803 2052 -2052 237 -58 384 -75 667 -75 283 0 430 17 667 75 1018 249
1803 1034 2052 2052 58 237 75 384 75 667 0 283 -17 430 -75 667 -272 1112
-1175 1933 -2314 2103 -158 24 -502 34 -648 20z m-382 -1365 c44 -9 103 -23
130 -31 136 -44 308 -163 433 -299 l62 -68 62 68 c125 136 297 255 433 299
105 33 208 46 380 46 197 0 265 -14 400 -81 511 -255 690 -918 412 -1524 -203
-443 -606 -880 -1262 -1372 -167 -125 -410 -293 -425 -293 -15 0 -258 168
-425 293 -810 607 -1250 1149 -1366 1682 -67 308 -7 656 154 895 120 178 308
318 507 377 65 19 99 22 250 22 117 1 202 -4 255 -14z"/>
</g>
</svg>
