<svg version="1.1" xmlns="http://www.w3.org/2000/svg" viewBox="0 0 32 32" height="32" width="32">
	<style type="text/css">
		.circle-heart-background {fill: hsl(216, 90%, 12%)}
		.circle-heart, .circle-heart-ring {fill: hsl(16, 5%, 80%)}
	</style>
	<circle class="circle-heart-background" cx="16" cy="16" r="14.2"/>
	<path class="circle-heart" d="M16,0.5C7.5,0.5,0.5,7.5,0.5,16c0,8.5,7,15.5,15.5,15.5c8.5,0,15.5-7,15.5-15.5C31.5,7.5,24.5,0.5,16,0.5z M16,28.8C8.9,28.8,3.2,23.1,3.2,16C3.2,8.9,8.9,3.2,16,3.2c7.1,0,12.8,5.7,12.8,12.8C28.8,23.1,23.1,28.8,16,28.8z"/>
	<path class="circle-heart-ring" d="M19.8,9.4c0.2,0,0.5,0,0.8,0c1.6,0.2,3.5,1.6,3.7,4.3v0.9c-0.2,2.6-2.3,5.8-8.3,9.8c-6-4-8.1-7.2-8.3-9.8v-0.9 c0.2-2.7,2.1-4.1,3.7-4.3c0.3,0,0.5,0,0.8,0c1.9,0,2.8,0.8,3.8,1.9C17,10.2,17.9,9.4,19.8,9.4"/>
</svg>
